<svg xmlns="http://www.w3.org/2000/svg" viewBox="0 0 128 192" role="img" aria-labelledby="title desc">
  <title id="title">Near Miss player sports car</title>
  <desc id="desc">Top-down red sports car sprite with transparent background.</desc>
  <defs>
    <linearGradient id="body" x1="0" x2="0" y1="16" y2="176" gradientUnits="userSpaceOnUse">
      <stop stop-color="#ff6a63"/>
      <stop offset="0.48" stop-color="#e83332"/>
      <stop offset="1" stop-color="#9d171b"/>
    </linearGradient>
    <linearGradient id="glass" x1="0" x2="0" y1="38" y2="122" gradientUnits="userSpaceOnUse">
      <stop stop-color="#26343a"/>
      <stop offset="1" stop-color="#0b1015"/>
    </linearGradient>
    <filter id="softGlow" x="-40%" y="-30%" width="180%" height="160%">
      <feDropShadow dx="0" dy="0" stdDeviation="5" flood-color="#ff3b3b" flood-opacity="0.55"/>
    </filter>
  </defs>
  <g filter="url(#softGlow)">
    <path fill="url(#body)" d="M64 12c24 0 37 8 44 28 5 14 7 42 7 82 0 25-2 43-7 53-7 9-23 13-44 13s-37-4-44-13c-5-10-7-28-7-53 0-40 2-68 7-82 7-20 20-28 44-28Z"/>
    <path fill="#b91e24" d="M24 56c-8 18-10 43-10 76v9l12-4c2-29 5-57 12-80l-14-1Zm80 1c7 23 10 51 12 80l12 4v-9c0-33-2-58-10-76l-14 1Z" opacity="0.78"/>
    <path fill="url(#glass)" d="M38 58c8-22 17-31 26-31s18 9 26 31c-9 5-18 7-26 7s-17-2-26-7Z"/>
    <path fill="#111820" d="M33 111c9 6 20 9 31 9s22-3 31-9c5 12 10 25 17 38-12 10-29 15-48 15s-36-5-48-15c7-13 12-26 17-38Z"/>
    <path fill="#f8c64a" d="M39 170c14 5 36 5 50 0l2 6c-15 7-39 7-54 0l2-6Z"/>
    <path fill="#ffe7b0" d="M27 32c8-5 18-8 31-9l-2 8c-11 1-20 3-27 7l-2-6Zm74 0c-8-5-18-8-31-9l2 8c11 1 20 3 27 7l2-6Z"/>
    <path fill="none" stroke="#ffd166" stroke-linecap="round" stroke-width="3" d="M46 48c7-7 29-7 36 0"/>
    <path fill="#0a0d13" d="M12 76h10v30H12V76Zm94 0h10v30h-10V76Zm-94 52h10v31H12v-31Zm94 0h10v31h-10v-31Z" opacity="0.72"/>
  </g>
</svg>
