<svg xmlns="http://www.w3.org/2000/svg" width="128" height="192" viewBox="0 0 128 192" role="img" aria-labelledby="title desc">
  <title id="title">Near Miss traffic van truck</title>
  <desc id="desc">Top-down green van truck traffic sprite derived from the curated UI truck SVG, with transparent background.</desc>
  <g transform="translate(64 96) scale(0.106) rotate(180) translate(-1024 -1024)">
    <path fill="rgb(250,242,135)" d="M 1218.45 1843.09 C 1257.22 1822.25 1297.08 1806.62 1339.29 1794.19 C 1349.32 1791.24 1359.56 1788.56 1369.41 1785.1 L 1367.83 1788.74 C 1363.14 1791.95 1362.11 1797.19 1357.59 1801.96 C 1344.53 1815.75 1320.41 1833.65 1301.92 1837.93 C 1301.99 1843.11 1302.17 1848.81 1302.1 1853.94 C 1291.76 1854.32 1280.19 1854.04 1269.77 1854 L 1269.65 1843.57 C 1258.91 1843.99 1247.83 1843.95 1237.06 1844.05 C 1230.71 1844.04 1224.68 1844.27 1218.45 1843.09 z"/>
    <path fill="rgb(250,242,135)" d="M 680.092 1786.27 C 710.128 1792.36 805.16 1825.37 828.117 1842.54 C 822.187 1844.21 817.285 1843.97 811.129 1844.11 C 804.807 1844.33 795.703 1843.85 789.179 1843.69 C 769.108 1842.04 767.844 1844.3 746.102 1838.58 C 735.894 1835.86 722.441 1827.33 713.353 1821.73 L 712.728 1821.25 C 702.251 1810.78 686.359 1800.89 680.092 1786.27 z"/>
    <path fill="rgb(118,187,71)" d="M 705.098 1458.77 C 716.766 1461.37 731.721 1469.4 743.735 1473.32 C 768.116 1480.78 793.655 1488.11 818.78 1492.62 C 956.055 1517.26 1099.72 1517.73 1236.74 1491.14 C 1272.81 1484.14 1309.33 1471.85 1343.94 1459.35 C 1346.2 1496.29 1344.46 1545.45 1344.67 1583.17 L 1345 1662.91 C 1345.06 1687.25 1347.06 1714.43 1339.04 1737.49 C 1332.2 1757 1311.16 1782.89 1289.96 1787.78 C 1272.65 1791.76 1249.53 1790.86 1231.55 1790.9 L 1159.21 1790.99 L 855.306 1791.25 C 826.127 1791.26 791.589 1792.74 763.3 1788.76 C 737.563 1785.13 710.514 1751.93 707.081 1727.14 C 702.628 1694.99 704.407 1658.94 704.483 1626.28 C 704.134 1570.44 704.339 1514.6 705.098 1458.77 z"/>
    <path fill="rgb(32,43,44)" d="M 847.121 1256.18 C 860.432 1255.58 889.869 1258.6 904.415 1259.43 C 939.635 1261.38 974.89 1262.63 1010.16 1263.17 C 1053.62 1263.35 1097.08 1262.25 1140.48 1259.88 C 1157.79 1258.98 1211.29 1250.04 1220.88 1265.46 C 1246.07 1305.98 1266.92 1350.36 1290.31 1392.07 C 1296.37 1402.86 1302.38 1414.06 1307.7 1425.22 C 1280.79 1448.87 1235.65 1455.29 1200.78 1461.05 C 1172.63 1466.08 1143.37 1468.18 1114.85 1469.87 C 1027.87 1475.02 839.809 1474.77 764.42 1439.93 C 755.703 1435.9 748.898 1430.98 741.744 1424.63 C 744.889 1417.57 748.627 1410.59 752.327 1403.81 C 776.422 1359.6 799.57 1314.84 823.917 1270.78 C 829.296 1261.05 836.848 1258.51 847.121 1256.18 z"/>
    <path fill="rgb(118,187,71)" d="M 970.791 1103.49 C 983.582 1103.11 998.001 1103.66 1011 1103.66 L 1113.62 1104.1 C 1140.82 1104.25 1168.22 1102.63 1195.35 1104.43 C 1207.09 1105.65 1215.46 1111.14 1215.65 1124.04 C 1216.07 1151.34 1216.43 1179.77 1215.04 1207.04 C 1214.32 1220.92 1202.35 1227.32 1189.58 1228.62 C 1152.43 1232.39 1115.38 1235.24 1077.99 1236.16 C 1061.16 1237.62 1036.4 1237.01 1018.95 1236.93 C 976.862 1237.04 934.787 1235.46 892.826 1232.19 C 874.651 1230.76 833.418 1232.43 833.221 1207.05 C 833.002 1178.82 832.624 1150.21 833.648 1121.91 C 834.128 1108.62 841.902 1106.62 853.814 1104.64 C 867.02 1103.3 881.617 1103.79 895.129 1103.73 L 970.791 1103.49 z"/>
    <path fill="rgb(32,43,44)" d="M 746.636 1122.44 C 767.974 1121.22 790.308 1122.61 811.016 1127.92 L 811.103 1186.73 C 811.114 1200.68 812 1215.28 809.546 1229.05 C 805.567 1251.4 746.912 1346.5 733.04 1370.69 C 729.036 1377.81 713.513 1407.13 708.115 1409.91 L 706.325 1408.53 C 702.736 1400.03 704.202 1325.29 704.194 1310.41 L 704.287 1128.24 C 718.817 1123.48 731.579 1123.22 746.636 1122.44 z"/>
    <path fill="rgb(32,43,44)" d="M 1279.62 1122.43 C 1301.84 1121.38 1322.34 1122.32 1343.92 1128.01 L 1343.95 1129.33 C 1345.36 1187.83 1344.2 1249.9 1344.22 1308.61 L 1344.38 1372.81 C 1344.41 1380.79 1346.3 1405.05 1341.45 1410.14 C 1336.69 1408.46 1330.07 1395.36 1327.04 1390.24 L 1276.66 1302.72 C 1267.41 1286.56 1258.19 1270.05 1248.82 1253.99 C 1235.48 1231.14 1237.51 1211.25 1237.61 1185.79 L 1237.87 1128.6 C 1253.9 1123.28 1262.91 1123.3 1279.62 1122.43 z"/>
    <path fill="rgb(220,220,220)" d="M 670.246 874.449 C 700.482 872.747 742.436 874.156 773.811 874.159 L 975.024 874.216 L 1268.34 874.244 L 1327.43 874.082 C 1342.46 874.004 1370.05 872.601 1383.61 876.861 C 1384.92 890.537 1384.08 916.318 1384.04 931.017 C 1383.91 963.05 1383.97 995.084 1384.22 1027.12 L 1374.35 1027.87 L 980.629 1026.98 L 762.139 1027.06 C 732.225 1026.91 694.541 1028.31 665.59 1026.85 C 664.282 1011.39 663.112 880.028 666.073 875.364 L 670.246 874.449 z"/>
    <path fill="rgb(220,220,220)" d="M 676.911 567.565 C 724.45 565.38 783.582 566.967 831.68 566.972 L 1111.63 567.055 L 1288.86 566.782 C 1315.66 566.764 1358.12 565.505 1384.06 567.953 C 1384.05 574.237 1383.96 580.57 1383.87 586.855 C 1383.24 631.268 1385.74 675.375 1384.5 719.831 L 1374.1 720.384 L 664.994 719.96 C 664.225 669.276 665.687 618.509 664.753 568 L 676.911 567.565 z"/>
    <path fill="rgb(220,220,220)" d="M 703.122 260.458 C 776.2 258.427 857.137 260.09 930.914 260.028 L 1358.56 260.096 C 1363.16 272.336 1372.19 287.024 1376.08 299.635 C 1386.25 332.605 1384.28 378.113 1384.16 412.646 C 1370.82 413.487 1359.85 413.939 1346.5 413.888 L 877.445 413.718 L 745.833 413.731 C 725.26 413.85 682.884 415.224 664.884 412.746 C 664.694 369.391 661.303 296.018 691.018 261.436 C 694.439 260.963 699.547 260.735 703.122 260.458 z"/>
  </g>
</svg>
