<svg xmlns="http://www.w3.org/2000/svg" viewBox="0 0 128 192" role="img" aria-labelledby="title desc">
  <title id="title">Near Miss traffic SUV</title>
  <desc id="desc">Top-down teal SUV traffic sprite with transparent background.</desc>
  <defs>
    <linearGradient id="body" x1="0" x2="0" y1="14" y2="182" gradientUnits="userSpaceOnUse">
      <stop stop-color="#45e3df"/>
      <stop offset="0.52" stop-color="#157f96"/>
      <stop offset="1" stop-color="#0d435a"/>
    </linearGradient>
    <linearGradient id="glass" x1="0" x2="0" y1="42" y2="128" gradientUnits="userSpaceOnUse">
      <stop stop-color="#263c46"/>
      <stop offset="1" stop-color="#0b1218"/>
    </linearGradient>
    <filter id="softGlow" x="-35%" y="-25%" width="170%" height="150%">
      <feDropShadow dx="0" dy="0" stdDeviation="3.5" flood-color="#00e5ff" flood-opacity="0.2"/>
    </filter>
  </defs>
  <g filter="url(#softGlow)">
    <path fill="url(#body)" d="M64 14c23 0 38 8 45 23 6 13 9 38 9 74 0 34-3 55-10 64-8 7-23 11-44 11s-36-4-44-11c-7-9-10-30-10-64 0-36 3-61 9-74 7-15 22-23 45-23Z"/>
    <path fill="#0b4052" d="M24 54c-7 20-9 45-9 78l12-4c1-28 4-52 10-73l-13-1Zm80 1c6 21 9 45 10 73l12 4c0-33-2-58-9-78l-13 1Z" opacity="0.68"/>
    <path fill="url(#glass)" d="M35 56c8-18 17-25 29-25s21 7 29 25c-9 5-19 8-29 8s-20-3-29-8Z"/>
    <path fill="#111821" d="M33 102h62c5 16 10 33 15 51-11 8-27 13-46 13s-35-5-46-13c5-18 10-35 15-51Z"/>
    <path fill="none" stroke="#7dd3fc" stroke-linecap="round" stroke-width="3" d="M32 82h64M31 139h66"/>
    <path fill="#f4f2ee" d="M29 36c8-4 18-7 31-7l-1 6c-12 1-21 3-28 7l-2-6Zm70 0c-8-4-18-7-31-7l1 6c12 1 21 3 28 7l2-6Z" opacity="0.78"/>
    <path fill="#080b10" d="M9 75h11v32H9V75Zm99 0h11v32h-11V75ZM9 128h11v34H9v-34Zm99 0h11v34h-11v-34Z" opacity="0.72"/>
  </g>
</svg>
