<svg version="1.1" xmlns="http://www.w3.org/2000/svg" style="display: block;" viewBox="0 0 2048 2048" width="1024" height="1024" preserveAspectRatio="none">
<defs>
	<linearGradient id="Gradient1" gradientUnits="userSpaceOnUse" x1="791.482" y1="479.38" x2="757.96" y2="469.516">
		<stop class="stop0" offset="0" stop-opacity="1" stop-color="rgb(0,0,0)"/>
		<stop class="stop1" offset="1" stop-opacity="1" stop-color="rgb(6,12,28)"/>
	</linearGradient>
</defs>
<path transform="translate(0,0)" fill="rgb(255,255,255)" d="M 0 0 L 2048 0 L 2048 2048 L 0 2048 L 0 0 z"/>
<path transform="translate(0,0)" fill="rgb(106,76,46)" d="M 918.826 884.283 C 949.513 884.013 980.201 883.914 1010.89 883.986 C 1018.8 884.011 1027.53 884.226 1035.37 883.989 C 1066.24 883.948 1097.11 884.073 1127.98 884.363 C 1136.54 884.51 1146.63 884.414 1155.04 884.872 L 1155.08 921.267 C 1221.36 920.062 1290.45 921.032 1356.95 921.011 L 1357 1877.3 C 1250.07 1878.43 1140.64 1877.53 1033.55 1877.31 L 689.728 1877.22 L 689.673 1290.42 C 689.693 1168.07 688.212 1043.11 689.597 920.997 C 756.236 921.338 825.229 919.871 891.565 921.287 L 891.812 885.017 L 918.826 884.283 z"/>
<path transform="translate(0,0)" fill="rgb(14,15,17)" d="M 918.826 884.283 C 949.513 884.013 980.201 883.914 1010.89 883.986 C 1018.8 884.011 1027.53 884.226 1035.37 883.989 L 1034.98 920.986 C 1027.1 921.01 1018.81 920.833 1011.03 921.79 C 1001.18 920.671 985.77 921.029 975.529 921.035 L 918.272 921.119 C 910.846 921.925 899.073 921.884 891.565 921.287 L 891.812 885.017 L 918.826 884.283 z"/>
<path transform="translate(0,0)" fill="rgb(104,103,103)" d="M 891.812 885.017 L 918.826 884.283 C 918.564 896.47 918.141 908.952 918.272 921.119 C 910.846 921.925 899.073 921.884 891.565 921.287 L 891.812 885.017 z"/>
<path transform="translate(0,0)" fill="rgb(104,103,103)" d="M 1010.89 883.986 C 1018.8 884.011 1027.53 884.226 1035.37 883.989 L 1034.98 920.986 C 1027.1 921.01 1018.81 920.833 1011.03 921.79 L 1010.89 883.986 z"/>
<path transform="translate(0,0)" fill="rgb(14,15,17)" d="M 1035.37 883.989 C 1066.24 883.948 1097.11 884.073 1127.98 884.363 C 1136.54 884.51 1146.63 884.414 1155.04 884.872 L 1155.08 921.267 C 1145.77 921.735 1137.35 922.153 1128 922.051 C 1121.5 920.623 1100.92 920.987 1093.65 921.012 C 1074.09 921.223 1054.54 921.214 1034.98 920.986 L 1035.37 883.989 z"/>
<path transform="translate(0,0)" fill="rgb(104,103,103)" d="M 1127.98 884.363 C 1136.54 884.51 1146.63 884.414 1155.04 884.872 L 1155.08 921.267 C 1145.77 921.735 1137.35 922.153 1128 922.051 L 1127.98 884.363 z"/>
<path transform="translate(0,0)" fill="rgb(127,94,63)" d="M 702.991 933.989 C 730.311 933.535 758.705 934.276 786.148 934.288 L 1026 934.853 L 1235.5 934.309 C 1272.34 934.261 1306.93 933.659 1343.85 934.774 C 1342.55 958.13 1343.66 986.394 1343.58 1010 L 1343.77 1203.47 L 1343.63 1856.39 C 1343.8 1859.63 1344.21 1861.24 1342.75 1864.12 C 1337.84 1865.25 1299.84 1864.04 1292 1864 C 1261.11 1863.86 1230.16 1864.03 1199.26 1864.11 L 703.052 1864.06 C 702.184 1814.12 702.985 1762.66 702.853 1712.59 L 702.868 1305.5 L 702.837 1087.99 L 702.855 1005.39 C 702.716 981.603 701.969 957.737 702.991 933.989 z"/>
<path transform="translate(0,0)" fill="rgb(106,76,46)" d="M 734.827 1530.18 C 750.939 1529.37 769.962 1529.79 786.274 1529.75 L 880.14 1529.72 L 1122.23 1529.81 L 1253.19 1529.96 C 1272.37 1529.9 1294.38 1529.5 1313.66 1530.27 C 1316.88 1530.83 1321.15 1533.28 1322.51 1536.26 C 1327.08 1546.3 1321.85 1552.3 1313.69 1556.81 L 875.173 1556.89 L 777.373 1556.93 C 766.447 1556.94 743.593 1558.06 733.713 1556.11 C 721.223 1553.65 720.042 1536.86 734.827 1530.18 z"/>
<path transform="translate(0,0)" fill="rgb(106,76,46)" d="M 737.151 1707.31 C 755.525 1706.2 782.481 1707.13 801.444 1707.11 L 935.167 1707.16 L 1184.32 1707.25 C 1204.63 1707.22 1305.31 1704.91 1315.19 1708.44 C 1318.58 1709.65 1321.66 1712.43 1322.97 1715.81 C 1324.22 1719.06 1324.23 1723.65 1322.6 1726.79 C 1320.4 1731.04 1316.92 1732.24 1312.74 1733.96 C 1288.47 1735.08 1258.65 1734.19 1233.75 1734.32 L 1032.65 1734.2 L 835.316 1734.04 C 802.544 1734 769.758 1734.24 736.997 1733.91 C 731.715 1733.88 724.674 1728.23 723.934 1722.81 C 722.571 1712.82 728.802 1708.99 737.151 1707.31 z"/>
<path transform="translate(0,0)" fill="rgb(106,76,46)" d="M 842.606 1174.47 C 867.139 1173.83 897.413 1175.01 922.781 1175 L 1127.04 1175 L 1238.68 1174.92 C 1260.44 1174.73 1283.07 1174.14 1304.83 1174.63 C 1309.56 1174.87 1320.49 1176.86 1322.92 1181.86 C 1327.59 1191.48 1320.89 1197.21 1314.44 1201.45 C 1281.03 1202.98 1240.51 1202.03 1206.75 1201.82 L 845.594 1201.6 C 811.408 1201.5 777.129 1202.11 742.924 1202.01 C 721.661 1201.94 716.909 1186.95 733.893 1175.09 C 769.943 1174.25 806.271 1175.5 842.606 1174.47 z"/>
<path transform="translate(0,0)" fill="rgb(106,76,46)" d="M 733.751 1352.07 C 755.321 1351.8 777.022 1352.46 798.63 1352.36 L 1112.44 1352.13 L 1245.85 1352.05 C 1266.83 1352.02 1289.16 1351.17 1310.01 1352.07 C 1325.7 1352.75 1329.05 1367.93 1315.85 1378.87 L 946.443 1379.03 L 802.784 1379.05 C 782.009 1379.05 761.237 1379.07 740.463 1379.25 C 732.349 1379.32 723.438 1374.39 724.428 1365.14 C 725.121 1358.67 728.989 1355.93 733.751 1352.07 z"/>
<path transform="translate(0,0)" fill="rgb(106,76,46)" d="M 733.695 1086.23 C 772.516 1084.97 817.208 1085.93 856.304 1085.95 L 1076.26 1085.95 L 1232.55 1085.96 C 1258.59 1085.93 1284.99 1085.61 1311 1086.01 C 1324.39 1086.21 1330.55 1102.53 1314.95 1111.76 C 1306.04 1113.51 1283.45 1112.85 1273.29 1112.86 L 1195.77 1112.9 L 903.244 1112.9 L 785.22 1112.9 C 769.615 1112.91 751.207 1113.31 735.513 1112.44 C 732 1111.86 726.895 1109.05 725.423 1105.75 C 721.104 1096.07 726.178 1090.89 733.695 1086.23 z"/>
<path transform="translate(0,0)" fill="rgb(106,76,46)" d="M 745.498 997.517 C 782.326 996.399 822.733 997.3 859.905 997.246 L 1080.19 997.103 L 1232.41 997.11 C 1257.41 997.132 1282.44 996.981 1307.43 997.339 C 1315.68 997.457 1325.82 1002.19 1324.38 1011.99 C 1323.53 1017.79 1319.65 1020.41 1315.37 1023.86 L 1301.5 1023.98 L 924.237 1024.02 L 807.768 1024 C 786.006 1024.06 764.492 1024.24 742.506 1023.95 C 729.318 1023.77 715.551 1017.26 727.634 1002.58 C 732.26 996.966 738.658 997.627 745.498 997.517 z"/>
<path transform="translate(0,0)" fill="rgb(106,76,46)" d="M 825.075 1263.51 C 919.099 1262.33 1015.4 1263.73 1109.66 1263.65 L 1239.4 1263.63 C 1264.08 1263.64 1291.52 1263.09 1315.96 1264.17 C 1329.91 1273.83 1326.28 1281.4 1314.13 1289.77 C 1304.37 1291.02 1288.93 1290.61 1278.72 1290.63 L 1222.2 1290.7 L 867.476 1290.24 C 839.221 1290.11 810.965 1290.28 782.713 1290.74 C 768.843 1290.83 745.44 1291.57 732.553 1289.63 C 720.965 1281.26 720.728 1274.07 731.341 1264.19 C 753.975 1262.24 800.361 1263.53 825.075 1263.51 z"/>
<path transform="translate(0,0)" fill="rgb(106,76,46)" d="M 732.105 1441.06 L 1133.74 1441.04 L 1253.46 1441.03 C 1271.39 1441.03 1290.21 1440.42 1308.06 1441 C 1325.88 1441.57 1329.64 1455.16 1316.19 1467.55 C 1309.05 1468.67 1271.38 1467.99 1262.05 1467.96 L 1150.73 1467.96 L 742.295 1468.19 C 723.995 1468.17 717.161 1453.54 732.105 1441.06 z"/>
<path transform="translate(0,0)" fill="rgb(106,76,46)" d="M 751.271 1618.47 L 1132.35 1618.57 L 1253.7 1618.56 C 1275.59 1618.57 1295.67 1618.04 1317.57 1619.15 C 1320.86 1623.85 1323.22 1628.41 1325.93 1633.43 C 1320.31 1641.32 1319.17 1644.46 1309.25 1644.94 C 1266.97 1645.64 1223.22 1645.13 1180.83 1645.11 L 960.66 1645.06 L 814.888 1645.07 C 790.973 1645.09 767.388 1645.21 743.151 1645.12 C 731.928 1645.08 715.809 1639.12 726.986 1624.63 C 732.195 1617.88 743.264 1618.51 751.271 1618.47 z"/>
<path transform="translate(0,0)" fill="rgb(106,76,46)" d="M 734.344 1796.33 C 754.667 1795.51 779.715 1796.16 800.339 1796.22 L 919.501 1796.43 L 1315.54 1796.1 C 1324.9 1804.61 1329.35 1816.38 1314.91 1822.89 L 908.881 1822.82 L 796.891 1822.73 C 777.69 1822.81 756.608 1823.58 737.557 1822.83 C 722.616 1822.24 719.033 1805.84 734.344 1796.33 z"/>
<path transform="translate(0,0)" fill="rgb(56,96,166)" d="M 814.929 193.721 C 815.168 193.384 817.805 189.676 818.304 189.579 C 856.068 182.266 895.621 173.47 933.833 169.202 C 936.311 168.925 952.467 174.147 953.777 174.534 C 1012.48 170.137 1037.05 170.225 1096.08 174.815 C 1107.51 168.136 1121.51 169.629 1133.67 172.533 C 1145.66 173.959 1223.04 187.046 1226.92 191.016 C 1227.25 191.352 1227.48 191.773 1227.77 192.144 C 1227.89 192.296 1228.02 192.438 1228.15 192.585 C 1232.7 193.743 1238.65 195.064 1243 196.493 C 1270.05 205.055 1285.8 211.544 1289.58 242.69 C 1294.61 284.301 1296.01 326.224 1298.44 368.043 C 1298.84 375.74 1301.32 405.485 1299.91 411.822 L 1298.13 412.547 L 1297.69 414.544 L 1298.87 416.161 L 1300 416.319 C 1304.04 435.595 1303.2 464.768 1296.52 483.88 C 1294.9 491.505 1296.27 525.12 1296.51 534.676 C 1296.96 554.47 1297.22 574.268 1297.29 594.067 L 1297.64 885.068 C 1251.17 885.036 1201.22 885.934 1155.04 884.872 C 1146.63 884.414 1136.54 884.51 1127.98 884.363 C 1097.11 884.073 1066.24 883.948 1035.37 883.989 C 1027.53 884.226 1018.8 884.011 1010.89 883.986 C 980.201 883.914 949.513 884.013 918.826 884.283 L 891.812 885.017 L 748.724 885.104 L 748.975 593.114 C 749.078 576.683 752.046 492.7 749.451 482.189 C 740.844 458.824 745.652 440.85 745.03 415.99 L 745.665 415.776 L 745.374 415.136 L 740.474 416 L 739.494 415.226 C 741.794 413.271 741.377 413.759 744.619 413.09 L 745.572 412.901 L 745.656 412.239 C 747.068 401.616 746.766 390.236 747.257 379.502 C 748.651 349.073 751.442 245.046 762.296 222.847 C 769.292 208.539 784.129 203.16 798.221 198.476 C 804.087 196.259 808.847 195.193 814.929 193.721 z"/>
<path transform="translate(0,0)" fill="rgb(56,96,166)" d="M 814.929 193.721 C 815.168 193.384 817.805 189.676 818.304 189.579 C 856.068 182.266 895.621 173.47 933.833 169.202 C 936.311 168.925 952.467 174.147 953.777 174.534 C 1012.48 170.137 1037.05 170.225 1096.08 174.815 C 1107.51 168.136 1121.51 169.629 1133.67 172.533 C 1145.66 173.959 1223.04 187.046 1226.92 191.016 C 1227.25 191.352 1227.48 191.773 1227.77 192.144 C 1227.89 192.296 1228.02 192.438 1228.15 192.585 C 1232.7 193.743 1238.65 195.064 1243 196.493 C 1270.05 205.055 1285.8 211.544 1289.58 242.69 C 1294.61 284.301 1296.01 326.224 1298.44 368.043 C 1298.84 375.74 1301.32 405.485 1299.91 411.822 L 1298.13 412.547 L 1297.69 414.544 L 1298.87 416.161 L 1300 416.319 C 1304.04 435.595 1303.2 464.768 1296.52 483.88 C 1294.24 479.694 1294.33 456.785 1294.02 450.184 C 1294.58 443.037 1293.42 436.802 1294.48 429.243 C 1293.91 424.829 1294.19 420.323 1290.36 418.131 C 1290.88 413.099 1288.54 407.934 1285.26 404.263 C 1283.54 403.233 1284.3 403.642 1283.34 400.885 C 1280.87 396.504 1280.03 396.308 1275.43 395.558 C 1272.56 380.434 1275.08 383.899 1266.73 369.042 C 1262.72 366.805 1261.5 365.144 1257.72 365.737 L 1255.96 369.783 L 1256.63 362.647 C 1234.48 358.001 1202.79 351.182 1180.25 349.343 C 1143.04 344.555 1105.57 342.069 1068.05 341.899 C 1048.05 339.598 965.272 339.548 946.476 342.855 C 940.107 342.997 933.623 342.924 927.35 343.881 C 919.356 343.999 905.537 344.622 897.66 346.085 C 891.579 346.073 886.252 346.727 880.218 347.364 C 856.404 349.862 814.53 356.141 791.709 362.715 L 789.696 364.057 C 779.213 368.725 776.875 373.385 771.575 383.215 C 771.816 388.483 772.048 391.761 771.561 397.067 C 766.876 395.232 766.08 396.647 762.288 399.701 L 761.424 402.871 C 758.487 406.465 758.273 405.594 753.025 407.386 C 750.615 410.151 750.778 414.277 751.537 417.795 C 752.85 418.577 752.814 418.81 754.167 418.974 C 749.017 426.441 755.217 472.903 749.451 482.189 C 740.844 458.824 745.652 440.85 745.03 415.99 L 745.665 415.776 L 745.374 415.136 L 740.474 416 L 739.494 415.226 C 741.794 413.271 741.377 413.759 744.619 413.09 L 745.572 412.901 L 745.656 412.239 C 747.068 401.616 746.766 390.236 747.257 379.502 C 748.651 349.073 751.442 245.046 762.296 222.847 C 769.292 208.539 784.129 203.16 798.221 198.476 C 804.087 196.259 808.847 195.193 814.929 193.721 z"/>
<path transform="translate(0,0)" fill="rgb(17,42,84)" d="M 814.929 193.721 C 815.168 193.384 817.805 189.676 818.304 189.579 C 856.068 182.266 895.621 173.47 933.833 169.202 C 936.311 168.925 952.467 174.147 953.777 174.534 C 1012.48 170.137 1037.05 170.225 1096.08 174.815 C 1107.51 168.136 1121.51 169.629 1133.67 172.533 C 1145.66 173.959 1223.04 187.046 1226.92 191.016 C 1227.25 191.352 1227.48 191.773 1227.77 192.144 C 1227.89 192.296 1228.02 192.438 1228.15 192.585 C 1232.7 193.743 1238.65 195.064 1243 196.493 C 1270.05 205.055 1285.8 211.544 1289.58 242.69 C 1294.61 284.301 1296.01 326.224 1298.44 368.043 C 1298.84 375.74 1301.32 405.485 1299.91 411.822 L 1298.13 412.547 L 1297.69 414.544 L 1298.87 416.161 L 1300 416.319 C 1304.04 435.595 1303.2 464.768 1296.52 483.88 C 1294.24 479.694 1294.33 456.785 1294.02 450.184 C 1294.58 443.037 1293.42 436.802 1294.48 429.243 C 1293.91 424.829 1294.19 420.323 1290.36 418.131 C 1290.88 413.099 1288.54 407.934 1285.26 404.263 C 1283.54 403.233 1284.3 403.642 1283.34 400.885 C 1280.87 396.504 1280.03 396.308 1275.43 395.558 C 1272.56 380.434 1275.08 383.899 1266.73 369.042 C 1262.72 366.805 1261.5 365.144 1257.72 365.737 L 1255.96 369.783 L 1256.63 362.647 C 1258.37 355.582 1258.85 336.598 1259.37 328.322 L 1264.04 254.996 C 1264.69 243.969 1264.5 229.384 1266.09 218.952 C 1197.77 197.487 1145.14 187.686 1073.35 185.454 C 987.286 182.778 901.833 183.743 818.136 207.456 C 807.79 210.328 789.349 215.343 779.977 219.693 C 780.706 235.247 787.18 357.455 790.895 362.027 C 791.119 362.302 791.438 362.485 791.709 362.715 L 789.696 364.057 C 779.213 368.725 776.875 373.385 771.575 383.215 C 771.816 388.483 772.048 391.761 771.561 397.067 C 766.876 395.232 766.08 396.647 762.288 399.701 L 761.424 402.871 C 758.487 406.465 758.273 405.594 753.025 407.386 C 750.615 410.151 750.778 414.277 751.537 417.795 C 752.85 418.577 752.814 418.81 754.167 418.974 C 749.017 426.441 755.217 472.903 749.451 482.189 C 740.844 458.824 745.652 440.85 745.03 415.99 L 745.665 415.776 L 745.374 415.136 L 740.474 416 L 739.494 415.226 C 741.794 413.271 741.377 413.759 744.619 413.09 L 745.572 412.901 L 745.656 412.239 C 747.068 401.616 746.766 390.236 747.257 379.502 C 748.651 349.073 751.442 245.046 762.296 222.847 C 769.292 208.539 784.129 203.16 798.221 198.476 C 804.087 196.259 808.847 195.193 814.929 193.721 z"/>
<path transform="translate(0,0)" fill="rgb(46,80,141)" d="M 1266.09 218.952 C 1275.84 225.97 1282.17 235.286 1283.56 247.36 C 1287.63 282.479 1287.65 318.19 1290.32 353.481 C 1291.63 370.861 1290.93 388.379 1293.46 405.679 C 1290.79 405.951 1287.93 404.945 1285.26 404.263 C 1283.54 403.233 1284.3 403.642 1283.34 400.885 C 1280.87 396.504 1280.03 396.308 1275.43 395.558 C 1272.56 380.434 1275.08 383.899 1266.73 369.042 C 1262.72 366.805 1261.5 365.144 1257.72 365.737 L 1255.96 369.783 L 1256.63 362.647 C 1258.37 355.582 1258.85 336.598 1259.37 328.322 L 1264.04 254.996 C 1264.69 243.969 1264.5 229.384 1266.09 218.952 z"/>
<path transform="translate(0,0)" fill="rgb(46,80,141)" d="M 753.025 407.386 C 754.763 400.332 755.011 370.017 755.347 361.086 C 756.374 339.247 757.582 317.418 758.97 295.599 C 759.858 280.927 760.635 265.024 762.407 250.451 C 764.193 235.766 768.215 228.555 779.977 219.693 C 780.706 235.247 787.18 357.455 790.895 362.027 C 791.119 362.302 791.438 362.485 791.709 362.715 L 789.696 364.057 C 779.213 368.725 776.875 373.385 771.575 383.215 C 771.816 388.483 772.048 391.761 771.561 397.067 C 766.876 395.232 766.08 396.647 762.288 399.701 L 761.424 402.871 C 758.487 406.465 758.273 405.594 753.025 407.386 z"/>
<path transform="translate(0,0)" fill="rgb(246,245,60)" d="M 814.929 193.721 C 815.168 193.384 817.805 189.676 818.304 189.579 C 856.068 182.266 895.621 173.47 933.833 169.202 C 936.311 168.925 952.467 174.147 953.777 174.534 C 950.112 174.959 934.553 176.252 932.347 176.833 C 895.578 179.309 851.426 187.133 814.929 193.721 z"/>
<path transform="translate(0,0)" fill="rgb(246,245,60)" d="M 1096.08 174.815 C 1107.51 168.136 1121.51 169.629 1133.67 172.533 C 1145.66 173.959 1223.04 187.046 1226.92 191.016 C 1227.25 191.352 1227.48 191.773 1227.77 192.144 C 1227.89 192.296 1228.02 192.438 1228.15 192.585 C 1215.92 190.492 1202.94 187.989 1190.64 186.791 C 1186.65 184.761 1144.91 180.111 1138.98 179.384 C 1124.8 177.809 1110.14 176.803 1096.08 174.815 z"/>
<path transform="translate(0,0)" fill="rgb(37,44,37)" d="M 814.929 193.721 C 851.426 187.133 895.578 179.309 932.347 176.833 C 920.876 185.544 875.162 185.574 858.82 188.482 C 849.69 190.107 803.122 200.862 798.221 198.476 C 804.087 196.259 808.847 195.193 814.929 193.721 z"/>
<path transform="translate(0,0)" fill="rgb(37,44,37)" d="M 1190.64 186.791 C 1202.94 187.989 1215.92 190.492 1228.15 192.585 C 1232.7 193.743 1238.65 195.064 1243 196.493 C 1236.33 200.955 1198.5 190.593 1190.64 186.791 z"/>
<path transform="translate(0,0)" fill="rgb(30,40,55)" d="M 1293.46 405.679 L 1294.57 405.406 C 1295.01 411.755 1295.6 423.026 1294.48 429.243 C 1293.91 424.829 1294.19 420.323 1290.36 418.131 C 1290.88 413.099 1288.54 407.934 1285.26 404.263 C 1287.93 404.945 1290.79 405.951 1293.46 405.679 z"/>
<path transform="translate(0,0)" fill="rgb(14,15,17)" d="M 946.481 310.993 C 1022.3 308.668 1101.19 307.585 1176.66 316.598 C 1176.37 319.884 1175.83 324.432 1175.93 327.634 L 1174.45 331.278 C 1170.23 333.409 1126.74 328.81 1118.4 328.434 C 1082.28 326.803 1046.41 326.162 1010.26 325.966 C 978.294 327.288 946.629 327.372 914.664 329.857 C 908.399 330.344 877.607 333.56 873.209 332.463 C 871.691 330.032 871.72 330.133 870.996 327.366 L 870.423 325.612 C 870.001 322.512 869.558 321.214 870.558 318.225 C 876.107 313.354 892.31 314.121 900.378 313.835 C 906.215 312.393 938.534 311.333 946.481 310.993 z"/>
<path transform="translate(0,0)" fill="rgb(30,40,55)" d="M 946.481 310.993 C 1022.3 308.668 1101.19 307.585 1176.66 316.598 C 1176.37 319.884 1175.83 324.432 1175.93 327.634 C 1174.4 322.242 1171.38 319.133 1165.61 318.763 C 1115.58 315.78 1064.6 310.011 1014.47 312.55 C 992.233 313.676 967.359 312.117 945.745 314.878 C 945.766 313.69 946.204 312.219 946.481 310.993 z"/>
<path transform="translate(0,0)" fill="rgb(5,4,20)" d="M 870.423 325.612 C 870.001 322.512 869.558 321.214 870.558 318.225 C 876.107 313.354 892.31 314.121 900.378 313.835 C 896.044 315.396 890.444 316.86 886.711 318.282 C 883.052 319.229 879.375 320.105 875.681 320.908 C 875.862 322.589 876.107 325.826 876.422 327.344 C 887.505 330.161 904.896 325.707 915.189 326.205 C 932.219 327.03 998.184 318.624 1010.26 325.966 C 978.294 327.288 946.629 327.372 914.664 329.857 C 908.399 330.344 877.607 333.56 873.209 332.463 C 871.691 330.032 871.72 330.133 870.996 327.366 L 870.423 325.612 z"/>
<path transform="translate(0,0)" fill="rgb(14,27,61)" d="M 900.378 313.835 C 906.215 312.393 938.534 311.333 946.481 310.993 C 946.204 312.219 945.766 313.69 945.745 314.878 C 925.867 314.905 907.347 317.947 886.711 318.282 C 890.444 316.86 896.044 315.396 900.378 313.835 z"/>
<path transform="translate(0,0)" fill="rgb(17,42,84)" d="M 946.476 342.855 C 965.272 339.548 1048.05 339.598 1068.05 341.899 C 1105.57 342.069 1143.04 344.555 1180.25 349.343 C 1202.79 351.182 1234.48 358.001 1256.63 362.647 L 1255.96 369.783 C 1256.09 379.934 1252.38 409.835 1251.22 421.502 L 1241.14 523.086 C 1222.56 523.375 1200.25 520.422 1181.27 518.856 C 1155.65 516.888 1130 515.477 1104.32 514.626 C 1004.66 511.166 904.887 514.273 805.641 523.927 C 803.322 512.725 801.504 486.823 800.338 474.768 C 797.089 437.836 793.541 400.931 789.696 364.057 L 791.709 362.715 C 814.53 356.141 856.404 349.862 880.218 347.364 C 886.252 346.727 891.579 346.073 897.66 346.085 C 905.537 344.622 919.356 343.999 927.35 343.881 C 933.623 342.924 940.107 342.997 946.476 342.855 z"/>
<path transform="translate(0,0)" fill="rgb(5,4,20)" d="M 1068.05 341.899 C 1105.57 342.069 1143.04 344.555 1180.25 349.343 C 1176.35 350.52 1172.27 351.019 1168.2 350.817 C 1153.8 350.229 1143.59 347.209 1131.01 346.226 C 1108.56 344.473 1082.97 343.429 1060.45 342.999 C 1061.31 342.219 1066.4 342.058 1068.05 341.899 z"/>
<path transform="translate(0,0)" fill="rgb(14,27,61)" d="M 897.66 346.085 C 905.537 344.622 919.356 343.999 927.35 343.881 C 932.528 346.006 935.671 345.867 941.167 346.155 C 930.42 347.491 917.087 347.188 908.42 348.365 C 903.712 347.71 902.113 347.529 897.66 346.085 z"/>
<path transform="translate(0,0)" fill="rgb(5,4,20)" d="M 927.35 343.881 C 933.623 342.924 940.107 342.997 946.476 342.855 C 950.223 343.007 953.536 342.824 956.949 344.313 L 956.669 345.071 C 950.995 346.366 946.915 346.148 941.167 346.155 C 935.671 345.867 932.528 346.006 927.35 343.881 z"/>
<path transform="translate(0,0)" fill="rgb(5,4,20)" d="M 880.218 347.364 C 886.252 346.727 891.579 346.073 897.66 346.085 C 902.113 347.529 903.712 347.71 908.42 348.365 C 900.188 349.304 889.04 351.226 881.173 349.113 L 880.218 347.364 z"/>
<path transform="translate(0,0)" fill="rgb(5,4,20)" d="M 1022.65 361.481 C 1051.02 361.084 1230.85 368.154 1244.53 377.552 C 1246.14 378.656 1246.58 381.604 1246.76 383.445 C 1248.22 398.694 1244.1 416.297 1242.53 431.567 C 1240.42 451.985 1239.17 479.722 1235.08 499.123 C 1234.33 502.66 1233.21 507.045 1230.69 509.775 C 1228.82 511.806 1227.66 512.003 1224.93 511.85 C 1205.54 510.771 1186.12 508.027 1166.75 506.381 C 1118.97 502.323 1070.77 499.002 1022.81 499.082 C 958.697 498.268 891.795 505.698 827.978 511.643 C 817.796 512.591 812.718 512.478 811.183 500.763 C 808.25 478.386 805.983 455.983 803.435 433.566 C 802.387 422.724 795.76 385.336 800.955 378.099 C 819.509 367.247 991.785 361.881 1022.65 361.481 z"/>
<path transform="translate(0,0)" fill="rgb(14,15,17)" d="M 1275.43 395.558 C 1280.03 396.308 1280.87 396.504 1283.34 400.885 C 1284.3 403.642 1283.54 403.233 1285.26 404.263 C 1288.54 407.934 1290.88 413.099 1290.36 418.131 C 1286.35 422.134 1282.53 429.07 1279.71 430.809 C 1277.28 433.715 1277.89 442.808 1277.86 447.203 L 1278.92 576.68 C 1278.91 595.572 1277.65 645.995 1280.06 663.42 C 1274.19 662.314 1263.86 660.333 1258.03 661.387 L 1257.82 604.517 C 1256.27 593.518 1257.42 578.991 1257.04 567.815 C 1255.67 527.658 1258.16 489.278 1266.48 449.916 C 1267.74 443.942 1267.97 435.867 1269.64 430.234 C 1271.12 418.779 1273.41 406.965 1275.43 395.558 z"/>
<path transform="translate(0,0)" fill="rgb(5,4,20)" d="M 1275.43 395.558 C 1280.03 396.308 1280.87 396.504 1283.34 400.885 C 1284.3 403.642 1283.54 403.233 1285.26 404.263 C 1288.54 407.934 1290.88 413.099 1290.36 418.131 C 1286.35 422.134 1282.53 429.07 1279.71 430.809 C 1277.28 433.715 1277.89 442.808 1277.86 447.203 C 1276.79 438.775 1277.45 433.425 1276.85 425.568 C 1274.38 433.763 1272.6 447.177 1269.85 453.593 C 1269.36 446.475 1270.31 435.063 1269.64 430.234 C 1271.12 418.779 1273.41 406.965 1275.43 395.558 z"/>
<path transform="translate(0,0)" fill="rgb(37,44,37)" d="M 1283.34 400.885 C 1284.3 403.642 1283.54 403.233 1285.26 404.263 C 1288.54 407.934 1290.88 413.099 1290.36 418.131 C 1286.35 422.134 1282.53 429.07 1279.71 430.809 C 1275.79 421.831 1279.07 409.231 1283.34 400.885 z"/>
<path transform="translate(0,0)" fill="rgb(17,42,84)" d="M 1257.82 604.517 C 1256.27 593.518 1257.42 578.991 1257.04 567.815 C 1255.67 527.658 1258.16 489.278 1266.48 449.916 C 1267.74 443.942 1267.97 435.867 1269.64 430.234 C 1270.31 435.063 1269.36 446.475 1269.85 453.593 C 1267.06 473.319 1262.01 499.275 1260.06 517.736 C 1263.92 518.308 1271.39 518.871 1274.07 521.178 C 1269.89 522.727 1262.97 521.265 1258.27 520.644 C 1257.41 548.081 1259.07 577.736 1257.82 604.517 z"/>
<path transform="translate(0,0)" fill="rgb(14,15,17)" d="M 770.039 523.82 C 772.74 523.316 775.45 522.866 778.168 522.469 C 781.614 521.997 783.037 522.08 785.804 524.215 C 788.552 528.718 787.995 534.547 788.129 540.023 C 788.032 578.685 786.857 623.114 789.216 661.249 C 780.796 661.353 774.728 661.672 766.353 662.511 C 767.778 655.13 767.17 642.4 767.207 634.584 C 767.288 617.612 766.777 600.51 767.097 583.524 C 768.401 574.732 767.662 560.261 768.189 550.633 C 768.755 540.294 770.734 533.812 770.039 523.82 z"/>
<path transform="translate(0,0)" fill="rgb(14,27,61)" d="M 765.197 429.415 C 773.521 433.984 773.658 431.156 775.451 441.544 C 775.718 439.441 776.5 436.494 776.989 434.352 C 781.45 467.568 792.189 507.472 788.129 540.023 C 787.995 534.547 788.552 528.718 785.804 524.215 C 783.037 522.08 781.614 521.997 778.168 522.469 C 775.45 522.866 772.74 523.316 770.039 523.82 C 770.734 533.812 768.755 540.294 768.189 550.633 C 767.662 560.261 768.401 574.732 767.097 583.524 C 766.345 573.79 766.928 559.198 766.701 548.718 C 765.706 511.302 765.859 473.865 767.161 436.458 C 766.82 433.033 766.447 432.561 765.197 429.415 z"/>
<path transform="translate(0,0)" fill="url(#Gradient1)" d="M 765.197 429.415 C 773.521 433.984 773.658 431.156 775.451 441.544 C 778.274 466.049 781.7 492.558 784.13 516.814 L 770.727 517.538 C 771.498 498.108 771.242 478.38 768.834 459.136 C 767.886 451.563 768.403 444.2 767.161 436.458 C 766.82 433.033 766.447 432.561 765.197 429.415 z"/>
<path transform="translate(0,0)" fill="rgb(46,80,141)" d="M 1290.36 418.131 C 1294.19 420.323 1293.91 424.829 1294.48 429.243 C 1293.42 436.802 1294.58 443.037 1294.02 450.184 C 1290.76 439.227 1291.45 431.66 1291.51 420.371 L 1285.49 426.737 C 1285.58 442.4 1286.01 458.169 1285.92 473.805 C 1285.83 490.255 1282.09 508.177 1281.75 524.512 C 1281.13 553.624 1280.35 582.934 1281.24 612.029 C 1281.46 619.107 1280.37 626.472 1280.91 633.59 C 1281.03 642.585 1282.45 654.76 1281.51 663.358 C 1278.45 665.874 1260.93 663.548 1258.03 661.387 C 1263.86 660.333 1274.19 662.314 1280.06 663.42 C 1277.65 645.995 1278.91 595.572 1278.92 576.68 L 1277.86 447.203 C 1277.89 442.808 1277.28 433.715 1279.71 430.809 C 1282.53 429.07 1286.35 422.134 1290.36 418.131 z"/>
<path transform="translate(0,0)" fill="rgb(5,4,20)" d="M 762.288 399.701 C 766.08 396.647 766.876 395.232 771.561 397.067 C 773.209 406.846 776.915 425.539 776.989 434.352 C 776.5 436.494 775.718 439.441 775.451 441.544 C 773.658 431.156 773.521 433.984 765.197 429.415 C 763.878 428.125 762.877 426.617 761.762 425.124 C 759.341 422.861 756.784 420.998 754.167 418.974 C 752.814 418.81 752.85 418.577 751.537 417.795 C 750.778 414.277 750.615 410.151 753.025 407.386 C 758.273 405.594 758.487 406.465 761.424 402.871 L 762.288 399.701 z"/>
<path transform="translate(0,0)" fill="rgb(30,40,55)" d="M 762.288 399.701 C 764.73 402.496 765.504 403.204 767.247 406.598 C 766.94 411.865 767.355 419.865 763.806 423.217 L 763.29 423.591 L 761.762 425.124 C 759.341 422.861 756.784 420.998 754.167 418.974 C 752.814 418.81 752.85 418.577 751.537 417.795 C 750.778 414.277 750.615 410.151 753.025 407.386 C 758.273 405.594 758.487 406.465 761.424 402.871 L 762.288 399.701 z"/>
<path transform="translate(0,0)" fill="rgb(37,44,37)" d="M 762.288 399.701 C 764.73 402.496 765.504 403.204 767.247 406.598 C 766.94 411.865 767.355 419.865 763.806 423.217 C 764.306 418.406 762.165 408.482 761.424 402.871 L 762.288 399.701 z"/>
<path transform="translate(0,0)" fill="rgb(14,15,17)" d="M 767.247 406.598 C 771.72 414.288 773.433 420.71 771.378 429.616 C 767.042 428.633 769.294 425.631 763.29 423.591 L 763.806 423.217 C 767.355 419.865 766.94 411.865 767.247 406.598 z"/>
<path transform="translate(0,0)" fill="rgb(17,42,84)" d="M 1105.46 537.748 C 1108.36 538.737 1112.26 540.242 1112.61 543.759 C 1113.34 551.054 1113.05 558.655 1113.05 566.014 L 1113.03 612.332 L 1113.04 795.637 C 1113.04 805.575 1113.8 865.824 1112.03 868.808 L 1108.25 869.071 C 1105.09 869.509 1103.04 870.25 1100.41 868.666 C 1099.3 866.828 1098.09 864.572 1098.24 862.392 C 1099.42 845.223 1098.94 827.995 1098.88 810.782 L 1098.83 619.882 C 1098.74 597.082 1098.21 567.218 1098.95 544.077 C 1099.03 541.6 1103.14 539.422 1105.46 537.748 z"/>
<path transform="translate(0,0)" fill="rgb(17,42,84)" d="M 1187.66 543.87 C 1189.14 544.198 1191.15 544.459 1192.5 545.144 C 1193.82 545.816 1194.9 546.653 1195.44 548.051 C 1197.71 553.959 1197.28 826.07 1196.77 854.404 C 1196.69 858.813 1197.12 864.178 1195.46 868.288 L 1193.25 868.795 C 1189.64 869.059 1186.85 869.688 1183.62 868.243 C 1181.29 864.502 1182.22 672.578 1182.21 657.26 L 1182.3 586.956 C 1182.31 575.318 1181.93 563.164 1182.6 551.546 C 1182.86 546.92 1184.48 546.358 1187.66 543.87 z"/>
<path transform="translate(0,0)" fill="rgb(17,42,84)" d="M 935.839 538.699 C 940.136 538.514 943.056 538.377 946.174 541.844 C 947.656 545.795 947.51 554.265 947.495 558.847 C 947.209 645.079 946.831 731.317 947.138 817.552 C 947.201 835.198 948.207 852.19 947.224 869.885 L 933.338 869.171 L 933.317 655.167 L 933.222 587.983 C 933.195 577.078 931.895 547.064 935.839 538.699 z"/>
<path transform="translate(0,0)" fill="rgb(17,42,84)" d="M 855.004 543.944 C 858.667 544.606 859.871 544.473 862.476 547.13 C 864.298 554.211 863.771 602.891 863.779 613.646 L 863.799 766.894 L 863.892 832.877 C 863.901 840.794 864.291 861.533 863.045 868.365 L 861.11 868.929 C 857.477 869.087 854.319 869.671 851.139 868.148 C 848.638 863.644 849.907 652.807 849.824 627.518 L 849.666 575.017 C 849.65 566.807 849.541 557.792 850.174 549.534 C 850.401 546.581 852.402 545.922 855.004 543.944 z"/>
<path transform="translate(0,0)" fill="rgb(17,42,84)" d="M 1021.77 535.475 C 1024.7 535.57 1024.49 535.535 1026.97 537.107 C 1031.08 542.776 1029.07 577.376 1029.08 586.562 L 1029.12 692.535 L 1029.08 810.834 C 1029.09 828.848 1029.84 850.361 1029.21 868.023 L 1027.16 869.302 C 1023.71 869.41 1020.85 869.905 1017.81 868.454 C 1016.28 866.05 1016.98 803.798 1016.98 794.725 L 1017.07 634.796 L 1016.9 567.413 C 1016.89 559.36 1016.84 549.614 1017.21 541.416 C 1017.27 540.033 1020.62 536.682 1021.77 535.475 z"/>
<path transform="translate(0,0)" fill="rgb(14,15,17)" d="M 783.673 704.371 C 787.016 703.982 787.682 703.241 789.751 704.684 C 793.052 742.134 786.963 785.72 789.858 823.722 C 790.316 829.726 789.838 834.608 790.829 840.867 C 785.845 840.975 781.126 841.391 776.167 841.783 C 772.77 842.378 770.809 842.942 767.35 842.501 C 766.199 827.049 766.864 804.702 766.874 788.63 C 766.717 760.996 766.875 733.361 767.348 705.73 C 772.706 705.588 778.316 704.903 783.673 704.371 z"/>
<path transform="translate(0,0)" fill="rgb(14,15,17)" d="M 1257.17 703.655 C 1264.53 704.591 1272.01 705.391 1279.39 706.246 L 1279.38 843.212 C 1272.81 841.438 1264.05 841.237 1257.25 841.006 C 1256.46 796.872 1256.92 747.947 1257.17 703.655 z"/>
<path transform="translate(0,0)" fill="rgb(14,15,17)" d="M 1318.28 406.506 C 1327.77 409.513 1357.85 417.074 1352.11 430.629 C 1345.48 432.574 1309.82 418.963 1300 416.319 L 1298.87 416.161 L 1297.69 414.544 L 1298.13 412.547 L 1299.91 411.822 C 1308.1 412.45 1311.05 410.195 1318.28 406.506 z"/>
<path transform="translate(0,0)" fill="rgb(14,15,17)" d="M 727.919 406.774 C 735.501 410.342 737.252 411.597 745.656 412.239 L 745.572 412.901 L 744.619 413.09 C 741.377 413.759 741.794 413.271 739.494 415.226 L 740.474 416 L 745.374 415.136 L 745.665 415.776 L 745.03 415.99 C 737.206 419.149 699.597 433.854 693.871 430.172 C 690.187 416.152 718.332 409.702 727.919 406.774 z"/>
</svg>