<svg xmlns="http://www.w3.org/2000/svg" style="display: block;" viewBox="0 0 2048 2048" width="1024" height="1024" preserveAspectRatio="none">
<path transform="translate(0,0)" fill="rgb(224,172,42)" d="M 674.596 672.523 C 675.305 651.809 671.307 631.099 670.437 610.4 C 668.067 553.986 667.142 435.164 685.209 384.769 C 696.785 352.478 721.722 318.311 746.742 294.808 C 768.754 274.131 791.093 270.067 818.515 260.851 C 835.097 255.278 851.525 249.201 868.348 244.376 C 926.05 227.874 986.011 220.656 1045.98 222.994 C 1109.66 225.297 1169.81 239.528 1229.6 260.665 C 1264.9 273.141 1285.22 274.102 1311.76 305.355 C 1331.41 328.481 1351.09 352.547 1361.72 382.051 C 1383.04 446.553 1377.92 533.317 1378.08 600.995 C 1378.13 622.744 1371.81 653.405 1373.37 672.129 L 1373.06 674.678 C 1373.58 701.333 1373.72 727.993 1373.47 754.652 C 1398.38 767.848 1444.25 800.035 1428.97 833.158 C 1421.18 841.529 1383.69 826.657 1373.09 822.876 L 1373.66 1119.85 C 1373.7 1196.31 1373.53 1273.04 1374.15 1349.5 C 1374.34 1372.32 1382.38 1403.07 1384.06 1427.64 C 1387.95 1486.49 1388.61 1546.02 1383.47 1604.86 C 1379.74 1647.52 1364.73 1687.95 1350.47 1727.71 C 1333.5 1775.03 1331.88 1770.44 1287.27 1786.67 C 1182.68 1824.79 1073.65 1826.48 963.503 1822.81 C 890.727 1820.38 818.744 1808.56 749.745 1783.24 C 704.982 1766.81 711.387 1762.49 694.718 1719.3 C 674.948 1668.08 661.5 1615.78 661.896 1560.34 C 661.693 1516.8 659.58 1471.99 663.798 1428.34 C 665.56 1404.19 671.702 1379.56 673.421 1356.5 C 674.882 1336.88 673.759 1310.67 673.692 1290.54 L 674.04 1201.04 C 674.092 1085.55 672.884 967.834 674.298 852.563 L 674.189 823.107 C 662.533 827.132 628.396 841.352 619.267 833.275 C 604.169 800.242 649.6 767.104 674.862 754.623 C 673.003 734.553 674.39 698.657 674.794 677.238 C 682.372 677.433 693.666 677.528 700.868 679.724 C 709.652 683.716 717.817 687.609 725.835 693.049 L 726.86 693.157 L 726.557 691.109 C 723.707 686.552 706.363 679.214 700.814 676.522 C 695.561 674.69 680.749 673.231 674.596 672.523 z"/>
<path transform="translate(0,0)" fill="rgb(182,126,31)" d="M 674.596 672.523 C 675.305 651.809 671.307 631.099 670.437 610.4 C 668.067 553.986 667.142 435.164 685.209 384.769 C 696.785 352.478 721.722 318.311 746.742 294.808 C 768.754 274.131 791.093 270.067 818.515 260.851 C 835.097 255.278 851.525 249.201 868.348 244.376 C 926.05 227.874 986.011 220.656 1045.98 222.994 C 1109.66 225.297 1169.81 239.528 1229.6 260.665 C 1264.9 273.141 1285.22 274.102 1311.76 305.355 C 1331.41 328.481 1351.09 352.547 1361.72 382.051 C 1383.04 446.553 1377.92 533.317 1378.08 600.995 C 1378.13 622.744 1371.81 653.405 1373.37 672.129 C 1368.22 672.292 1352.15 674.317 1347.87 676.574 C 1346.27 586.434 1349.25 496.587 1334.44 407.149 C 1333.34 400.463 1331.67 392.648 1331.14 385.977 L 1331.01 384.103 C 1287.67 344.984 1260.47 325.449 1231.19 271.623 C 1226.91 271.13 1227.46 270.528 1224.17 272.08 C 1221.22 278.013 1226.88 289.125 1228.4 295.663 C 1242.33 355.298 1258.46 414.677 1272.28 474.36 L 1294.83 575.304 C 1298.32 591.08 1301.81 609.56 1305.87 624.973 L 1304.48 625.72 L 1239.95 391.335 C 1229.26 352.352 1218.53 309.229 1206.13 270.962 C 1196.92 266.157 1190.18 264.204 1180.4 261.176 C 1088.1 232.604 994.338 228.979 900.401 251.732 C 884.602 255.559 856.133 262.021 841.932 269.718 C 837.882 285.454 831.984 302.608 827.566 318.613 L 768.674 529.795 L 748.374 606.232 C 746.762 612.147 744.789 616.159 743.007 621.676 C 741.576 626.11 742.192 633.48 739.561 638.062 C 738.73 626.808 744.294 614.797 746.644 604.36 L 757.029 558.141 C 762.113 536.117 766.125 513.78 771.312 491.552 C 788.647 418.027 807.111 344.774 826.698 271.817 L 814.626 272.438 C 799.545 310.499 749.854 358.585 717.227 383.727 C 703.429 470.084 699.279 553.121 700.914 640.317 C 701.118 651.245 701.634 665.905 700.814 676.522 C 695.561 674.69 680.749 673.231 674.596 672.523 z"/>
<path transform="translate(0,0)" fill="rgb(56,68,73)" d="M 834.775 623.599 C 947.743 587.301 1161.61 588.296 1269.58 645.021 C 1288.28 654.848 1311.96 669.302 1320.43 689.719 L 1321.28 691.391 C 1320.73 712.676 1310.37 732.526 1301.93 752.071 L 1269.77 826.443 C 1265.24 836.907 1253.57 863.189 1250.87 873.864 C 1248.23 872.59 1244.9 871.351 1242.13 870.237 C 1115.1 810.561 931.61 813.503 804.345 870.609 C 802.541 871.193 799.234 872.44 797.516 872.56 C 795.03 863.698 786.069 844.059 781.907 834.525 L 752.047 766.572 C 741.422 742.15 730.49 719.406 725.835 693.049 L 726.86 693.157 L 726.557 691.109 C 740.65 658.271 802.338 631.522 834.775 623.599 z"/>
<path transform="translate(0,0)" fill="rgb(40,51,56)" d="M 726.557 691.109 C 740.65 658.271 802.338 631.522 834.775 623.599 C 834.96 627.071 830.314 635.141 828.755 640.601 C 840.047 639.441 851.063 637.019 862.184 635.933 C 899.319 632.305 936.649 630.071 973.954 632.106 C 993.077 633.15 1011.92 632.979 1031.06 634.96 C 1001.05 638.434 969.883 637.777 939.37 641.555 C 890.923 647.552 843.953 654.482 797.367 669.812 C 773.579 677.271 752.78 682.599 730.16 694.592 C 727.656 694.112 728.665 694.738 726.86 693.157 L 726.557 691.109 z"/>
<path transform="translate(0,0)" fill="rgb(224,172,42)" d="M 804.345 870.609 C 931.61 813.503 1115.1 810.561 1242.13 870.237 C 1244.9 871.351 1248.23 872.59 1250.87 873.864 C 1250.94 884.456 1246.61 905.054 1245.34 916.522 C 1242.09 947.423 1239.96 978.432 1238.97 1009.49 C 1238.14 1057.49 1238.05 1105.5 1238.69 1153.5 C 1238.57 1229.91 1239.42 1306.31 1241.26 1382.69 L 1232.3 1385.49 C 1224.56 1386.9 1215.58 1389.57 1207.8 1391.44 C 1082.31 1421.55 940.169 1421.99 816.007 1384.46 C 812.575 1383.74 810.081 1383.33 806.605 1382.88 C 808.619 1351.55 807.979 1319.71 808.125 1288.28 C 808.713 1241.02 808.755 1193.75 808.251 1146.49 C 807.583 1069.59 810.682 993.088 802.567 916.455 C 801.053 902.156 797.878 886.771 797.516 872.56 C 799.234 872.44 802.541 871.193 804.345 870.609 z"/>
<path transform="translate(0,0)" fill="rgb(182,126,31)" d="M 804.345 870.609 L 804.648 872.445 C 808.167 893.19 813.11 913.758 814.529 935.021 C 821.31 1036.62 816.989 1139.49 817.782 1241.31 C 818.153 1288.94 814.672 1336.99 816.007 1384.46 C 812.575 1383.74 810.081 1383.33 806.605 1382.88 C 808.619 1351.55 807.979 1319.71 808.125 1288.28 C 808.713 1241.02 808.755 1193.75 808.251 1146.49 C 807.583 1069.59 810.682 993.088 802.567 916.455 C 801.053 902.156 797.878 886.771 797.516 872.56 C 799.234 872.44 802.541 871.193 804.345 870.609 z"/>
<path transform="translate(0,0)" fill="rgb(182,126,31)" d="M 1242.13 870.237 C 1244.9 871.351 1248.23 872.59 1250.87 873.864 C 1250.94 884.456 1246.61 905.054 1245.34 916.522 C 1242.09 947.423 1239.96 978.432 1238.97 1009.49 C 1238.14 1057.49 1238.05 1105.5 1238.69 1153.5 C 1238.57 1229.91 1239.42 1306.31 1241.26 1382.69 L 1232.3 1385.49 L 1229.81 1155.63 C 1228.98 1102.96 1227.76 1045.67 1229.6 993.1 C 1230.27 969.527 1232.08 946 1235 922.6 C 1237.01 907.507 1241.26 885.962 1242.05 871.692 L 1242.13 870.237 z"/>
<path transform="translate(0,0)" fill="rgb(56,68,73)" d="M 806.605 1382.88 C 810.081 1383.33 812.575 1383.74 816.007 1384.46 C 940.169 1421.99 1082.31 1421.55 1207.8 1391.44 C 1215.58 1389.57 1224.56 1386.9 1232.3 1385.49 L 1241.26 1382.69 C 1257.09 1446.73 1275.05 1509.14 1288.68 1573.87 L 1284.17 1576.17 C 1258.12 1586.79 1215.61 1604.09 1187.34 1610.49 C 1088.72 1632.84 967.456 1632.81 868.707 1612.21 C 838.67 1605.94 792.797 1588.66 764.759 1577.29 L 759.234 1575.14 C 770.62 1512.17 791.769 1445.42 806.605 1382.88 z"/>
<path transform="translate(0,0)" fill="rgb(244,241,194)" d="M 1231.19 271.623 C 1284.45 286.594 1330.95 324.688 1331.01 384.103 C 1287.67 344.984 1260.47 325.449 1231.19 271.623 z"/>
<path transform="translate(0,0)" fill="rgb(244,241,194)" d="M 814.626 272.438 C 799.545 310.499 749.854 358.585 717.227 383.727 C 722.032 318.777 757.09 293.644 814.626 272.438 z"/>
<path transform="translate(0,0)" fill="rgb(190,216,229)" d="M 721.65 762.482 C 727.704 765.767 740.92 802.453 744.578 810.657 C 759.427 843.961 776.439 876.813 788.127 911.351 C 794.877 936.363 792.008 993.13 791.946 1020.6 L 791.539 1187.39 L 791.829 1287.87 C 791.837 1295.52 792.34 1332.1 790.615 1337.45 C 783.809 1358.54 769.962 1387.85 760.034 1408.31 C 747.976 1433.17 736.328 1460.85 724.084 1485.02 C 723.708 1477.68 722.64 1465 723.635 1458.14 C 735.633 1434.31 773.62 1351.09 777.406 1328.37 C 780.08 1312.32 778.803 1294.61 779.002 1278.29 C 779.38 1251.25 780.024 1224.22 780.934 1197.2 C 759.323 1197.08 736.538 1197.73 714.848 1198.02 C 714.555 1190.34 714.343 1183.71 714.57 1176.05 L 781.917 1178.14 L 780.787 1021.82 C 780.447 990.031 781.942 948.886 775.637 918.566 C 772.482 903.388 760.954 877.925 754.787 862.887 C 744.583 837.534 734.108 812.292 723.363 787.164 C 722.446 783.581 722.891 769.474 721.65 762.482 z"/>
<path transform="translate(0,0)" fill="rgb(190,216,229)" d="M 1325.01 764.43 C 1325.29 771.944 1325.88 780.695 1324.42 787.962 C 1306.82 824.64 1282.53 885.213 1270.6 924.3 C 1264.95 942.806 1267.05 1002.02 1266.96 1023.94 L 1265.63 1178.45 C 1288.13 1177.51 1310.62 1176.69 1333.12 1175.98 C 1333.12 1182.97 1333.32 1191.09 1333.01 1197.98 C 1311.79 1197.75 1287.97 1196.98 1266.94 1197.35 L 1268.33 1280 C 1268.53 1295.3 1267.45 1312.06 1269.74 1327.18 C 1272.96 1348.53 1312.47 1436.37 1324.48 1458.12 C 1324.22 1467.3 1324.03 1476.49 1323.91 1485.67 C 1321.91 1480.49 1319.49 1475.72 1317.14 1470.69 C 1296.85 1427.1 1273.46 1383.27 1257.48 1337.93 C 1255.19 1331.45 1256.06 1289.41 1256.06 1280.75 L 1256.13 1164.77 L 1255.85 1001.36 C 1255.85 986.087 1254.97 930.913 1257.88 917.77 C 1262.64 896.239 1285.41 849.337 1295.25 827.159 C 1303.86 807.732 1315 783.011 1325.01 764.43 z"/>
<path transform="translate(0,0)" fill="rgb(146,92,24)" d="M 877.975 1773.25 C 874.345 1775.73 868.99 1777.67 864.751 1778.8 C 843.479 1784.48 750.764 1760.67 730.313 1748.63 C 722.386 1743.96 719.38 1735.87 717.057 1727.36 C 712.845 1711.95 693.892 1599.38 699.468 1591.11 C 700.414 1589.71 701.045 1590.01 702.563 1589.76 C 707.187 1619.52 721.847 1657.22 730.934 1686.76 C 734.977 1699.91 741.652 1723.86 751.882 1733.2 C 769.842 1744.96 794.205 1749.46 814.194 1756.43 C 834.037 1763.35 858.99 1765.54 877.975 1773.25 z"/>
<path transform="translate(0,0)" fill="rgb(146,92,24)" d="M 1345.44 1589.01 C 1347.61 1590 1348.52 1590.41 1349.39 1592.87 C 1352.53 1601.7 1334.76 1707.18 1330.9 1722.72 C 1329.27 1729.26 1327.09 1736.36 1323.4 1742.04 C 1312.71 1758.46 1230.57 1774.56 1210.15 1778.28 C 1196.16 1780.82 1182.24 1780.82 1169.67 1773.16 C 1211.99 1760.74 1260.57 1753.14 1300.05 1731.39 C 1308.78 1715.54 1342.86 1608.59 1345.44 1589.01 z"/>
</svg>
