<svg version="1.1" xmlns="http://www.w3.org/2000/svg" style="display: block;" viewBox="0 0 2048 2048" width="1024" height="1024" preserveAspectRatio="none">
<path transform="translate(0,0)" fill="rgb(232,51,50)" d="M 984.454 205.5 C 990.206 205.07 995.97 205.089 1001.72 204.964 C 1056.52 203.778 1111.46 206.181 1165.35 216.734 C 1180.08 219.619 1193.28 223.515 1207.75 227.216 C 1214.1 228.841 1226.68 228.572 1233.85 229.018 C 1256.06 230.401 1275.21 242.629 1290.73 257.887 C 1310.63 277.46 1322.1 296.666 1334.77 320.802 C 1373.61 394.756 1375.9 475.641 1377.05 557.457 C 1377.7 604.067 1375.32 654.69 1368.56 701.103 C 1365.95 719.74 1362.23 738.204 1357.41 756.395 C 1354.37 767.92 1345.16 785.622 1345.54 796.14 C 1346.07 810.386 1347.76 826.895 1348.96 841.267 C 1351.03 866.105 1352.82 890.966 1354.32 915.845 C 1359.54 1006.92 1363.14 1098.08 1365.14 1189.29 C 1390.75 1185.52 1452.74 1170.18 1429.77 1217.55 C 1427.87 1221.49 1424.93 1224.83 1421.27 1227.22 C 1413.6 1232.24 1376.95 1244.68 1366.5 1248.55 C 1369.16 1327.52 1367.87 1406.68 1368.83 1485.65 C 1369.91 1573.99 1384.31 1812.65 1239.32 1788.32 C 1226.98 1795.02 1217.72 1801 1204.54 1807.33 C 1157.58 1829.85 1114.26 1837.12 1063.37 1841.89 C 995.663 1846.35 922.643 1840.11 859.195 1814.33 C 839.216 1806.22 826.874 1798.13 808.598 1788.41 C 766.905 1794.9 734.767 1782.85 713.551 1744.5 C 685.366 1693.55 677.835 1623.86 678.05 1565.96 C 678.184 1529.88 679.273 1493.6 679.351 1457.35 C 679.333 1387.67 679.959 1317.99 681.23 1248.32 C 667.345 1243.41 629.426 1232.19 622.315 1222.88 C 607.153 1203.02 609.872 1181.45 640.014 1184.42 C 653.977 1185.8 669.437 1187.21 682.995 1189.03 C 683.613 1098.85 688.995 997.875 694.271 907.709 C 695.703 883.591 697.459 859.492 699.537 835.421 C 700.636 822.252 702.293 808.01 702.478 794.877 C 702.619 784.912 695.181 771.962 692.412 762.158 C 680.191 718.893 675.025 674.219 672.55 629.429 C 670.687 593.676 670.391 557.859 671.661 522.08 C 672.635 490.476 674.25 450.607 680.381 418.94 C 693.314 352.141 727.689 264.843 792.66 233.918 C 809.14 226.075 825.365 231.563 837.955 227.838 C 886.711 213.411 933.877 207.96 984.454 205.5 z"/>
<path transform="translate(0,0)" fill="rgb(32,41,43)" d="M 849.988 1060.02 C 917.795 1066.71 983.409 1071.21 1051.73 1069.8 C 1101.79 1068.78 1148.83 1064.46 1198.5 1060.16 C 1231.71 1125.33 1260.09 1193.18 1295.65 1257.18 C 1304.54 1273.17 1314.39 1288.58 1323.19 1304.69 C 1288.9 1325.49 1234.74 1338.94 1195.83 1346.82 C 1065.66 1370.94 842.242 1370.68 725.062 1304.28 C 730.604 1293.92 738.678 1281.59 744.787 1271.07 C 754.808 1253.46 764.472 1235.65 773.774 1217.65 C 800.173 1166.27 823.848 1111.88 849.988 1060.02 z"/>
<path transform="translate(0,0)" fill="rgb(32,41,43)" d="M 1016.73 513.443 C 1134.21 506.302 1224.41 600.851 1264.93 702.362 C 1236.38 730.076 1219.37 777.272 1209.46 815.441 C 1196.82 812.866 1175.43 810.482 1162.03 808.999 C 1121.25 804.488 1076.46 800.134 1035.43 799.989 C 968.208 799.683 905.106 805.902 838.589 815.356 C 834.614 790.446 816.223 746.908 802.819 725.452 C 797.619 717.127 789.819 708.721 782.985 701.645 C 829.52 600.556 896.837 519.726 1016.73 513.443 z"/>
<path transform="translate(0,0)" fill="rgb(32,41,43)" d="M 765.781 746.753 C 806.345 768.411 823.668 993.742 814.437 1041.27 C 811.821 1054.74 800.655 1083.29 795.135 1097.12 C 780.007 1135.32 763.265 1172.87 744.954 1209.66 C 738.029 1222.99 734.669 1229.84 724.026 1240.27 L 723.947 1239.6 C 722.239 1226.2 722.795 1206.68 722.83 1192.73 C 722.837 1167.97 723.064 1143.21 723.513 1118.46 C 724.08 1073.46 725.155 1028.47 726.74 983.497 C 728.824 924.489 736.29 799.487 765.781 746.753 z"/>
<path transform="translate(0,0)" fill="rgb(32,41,43)" d="M 1281.6 751.668 C 1287.7 753.878 1294.1 776.599 1295.92 782.934 C 1316.92 855.929 1319.83 930.185 1322.13 1005.62 C 1323.74 1054.4 1324.67 1103.21 1324.91 1152.02 L 1325.28 1202.16 C 1325.36 1207.68 1326.88 1235.26 1323.14 1237.75 C 1316.04 1235.73 1307.65 1218.25 1304.02 1211.49 C 1286.41 1177.54 1270.66 1139.43 1255.97 1104.02 C 1248.48 1085.97 1235.71 1056.25 1233.17 1037.8 C 1228.31 1002.55 1231.26 956.803 1235.05 921.649 C 1239.23 882.81 1252.34 775.343 1281.6 751.668 z"/>
<path transform="translate(0,0)" fill="rgb(32,41,43)" d="M 858.147 309.874 C 950.963 291.328 1094.5 293.265 1186.86 309.409 C 1194.45 328.205 1200.46 355.452 1204.09 375.725 L 1197.99 382.086 C 1105.11 366.748 1010.62 363.649 916.941 372.869 C 900.325 374.42 865.717 378.014 849.425 382.06 L 845.412 380.479 C 842.436 377.268 842.332 375.133 841.159 370.727 C 845.626 349.204 849.843 330.444 858.147 309.874 z"/>
<path transform="translate(0,0)" fill="rgb(248,197,144)" d="M 730.817 1664.17 C 734.029 1660.3 742.066 1656.1 747.2 1655.93 C 766.085 1655.29 774.675 1668.18 776.272 1685.1 C 777.332 1691.04 777.179 1694.73 777.159 1700.68 C 777.691 1712.17 778.257 1718.93 780.415 1730.09 C 781.853 1737.54 791.021 1762.2 789.459 1767.31 C 777.728 1783.82 760.303 1758.81 753.821 1749.3 C 739.741 1728.64 729.143 1705.35 722.304 1681.32 C 724.382 1674.18 726.334 1670.03 730.817 1664.17 z"/>
<path transform="translate(0,0)" fill="rgb(241,94,83)" d="M 730.817 1664.17 C 734.029 1660.3 742.066 1656.1 747.2 1655.93 C 766.085 1655.29 774.675 1668.18 776.272 1685.1 C 777.332 1691.04 777.179 1694.73 777.159 1700.68 C 760.071 1712.36 748.469 1709.73 734.344 1696.18 C 725.872 1683.96 729.118 1677.52 730.622 1665.76 L 730.817 1664.17 z"/>
<path transform="translate(0,0)" fill="rgb(249,231,176)" d="M 734.344 1696.18 C 744.455 1678.08 758.833 1676.31 776.272 1685.1 C 777.332 1691.04 777.179 1694.73 777.159 1700.68 C 760.071 1712.36 748.469 1709.73 734.344 1696.18 z"/>
<path transform="translate(0,0)" fill="rgb(248,197,144)" d="M 1271.83 1685.65 C 1272.87 1668.36 1282.16 1655.57 1301.32 1656 C 1306.28 1656.11 1313.94 1660.4 1317.09 1664.12 C 1330.48 1681.76 1321.47 1698.7 1312.93 1716.71 C 1305.21 1732.97 1284.21 1773.71 1263.32 1773.43 C 1255.23 1769.44 1259.49 1756.49 1261.92 1749.79 C 1268.13 1732.65 1270.18 1720.12 1270.93 1702.08 C 1270.92 1695.55 1271.06 1692.16 1271.83 1685.65 z"/>
<path transform="translate(0,0)" fill="rgb(241,94,83)" d="M 1271.83 1685.65 C 1272.87 1668.36 1282.16 1655.57 1301.32 1656 C 1306.28 1656.11 1313.94 1660.4 1317.09 1664.12 C 1318.69 1679.97 1323.28 1680.62 1314.48 1696.92 C 1300.18 1709.54 1288.15 1709.56 1270.93 1702.08 C 1270.92 1695.55 1271.06 1692.16 1271.83 1685.65 z"/>
<path transform="translate(0,0)" fill="rgb(249,231,176)" d="M 1271.83 1685.65 C 1289.51 1674.81 1304.39 1679.45 1314.48 1696.92 C 1300.18 1709.54 1288.15 1709.56 1270.93 1702.08 C 1270.92 1695.55 1271.06 1692.16 1271.83 1685.65 z"/>
<path transform="translate(0,0)" fill="rgb(241,94,83)" d="M 1003.78 271.435 C 1085.48 269.135 1170.47 276.111 1249.16 298.328 C 1252.91 299.386 1272.31 303.826 1273.49 304.822 L 1273.26 306.112 C 1272.01 306.096 1261.46 302.787 1258.8 302.216 C 1186.6 286.765 1116.38 281.01 1042.42 279.633 C 988.25 279.57 920.884 282.612 867.249 289.914 C 848.641 292.432 830.084 295.316 811.589 298.565 C 802.434 300.237 779.179 305.265 770.944 305.464 L 771.657 304.624 C 775.962 304.258 779.73 303.971 783.869 302.595 C 801.413 296.761 820.389 292.84 838.535 289.457 C 893.021 278.87 948.295 272.842 1003.78 271.435 z"/>
<path transform="translate(0,0)" fill="rgb(241,94,83)" d="M 773.306 1369.58 C 798.905 1376.47 824.091 1386.35 849.51 1394.09 C 866.367 1399.22 885.635 1402.13 901.65 1409.1 C 905.225 1410.66 907.698 1413.81 909.761 1417.02 C 935.356 1456.92 929.762 1591.75 927.76 1641.64 C 926.955 1661.69 927.492 1685.82 923.362 1705.23 L 923.447 1707.76 L 922.85 1707.7 C 921.511 1695.96 922.821 1662.49 922.828 1648.33 C 922.954 1604.21 921.735 1560.1 919.173 1516.06 C 917.396 1487.32 915.694 1459.31 907.822 1431.41 C 901.476 1408.91 892.647 1415.89 876.616 1409.35 C 843.57 1395.88 805.984 1386.62 774.428 1370.17 L 773.306 1369.58 z"/>
<path transform="translate(0,0)" fill="rgb(241,94,83)" d="M 1271 1370 L 1273.08 1370.69 C 1269.09 1373.98 1261.73 1375.87 1256.82 1377.86 C 1225.02 1390.66 1193.21 1402.34 1160.23 1411.78 C 1155.94 1413.01 1150.55 1414.05 1147.54 1417.52 C 1125.24 1443.23 1125.39 1597.8 1125.2 1637.9 C 1125.15 1648.02 1127.42 1687.66 1123.56 1694.55 C 1121.75 1676.81 1120.95 1656.83 1120.36 1638.67 C 1118.23 1573.13 1114.77 1504.86 1129.22 1440.49 C 1132.16 1427.36 1138.79 1410.02 1152.98 1406.54 C 1192.28 1396.9 1231.22 1384.51 1269.33 1371.12 C 1269.89 1370.74 1270.44 1370.37 1271 1370 z"/>
<path transform="translate(0,0)" fill="rgb(241,94,83)" d="M 1219.21 357.743 C 1222.22 360.075 1223.58 362.931 1225.57 366.167 C 1271.48 440.738 1283.03 557.633 1261.89 641.816 C 1260.89 644.045 1261.23 643.512 1259.9 645.33 C 1259.39 639.774 1261.32 631.404 1261.84 625.501 C 1268.68 548.609 1260.53 471.435 1236.49 398.016 C 1232.07 384.507 1223.65 371.366 1219.21 357.743 z"/>
<path transform="translate(0,0)" fill="rgb(241,94,83)" d="M 827.011 358.703 L 827.593 359.258 C 828.169 361.814 815.17 388.784 813.17 394.168 C 808.227 407.477 804.434 421.294 800.823 435.014 C 789.078 479.644 784.508 525.581 784.065 571.677 C 784.042 588.817 784.679 605.952 785.975 623.043 C 786.46 629.211 789.325 636.502 786.76 642.373 L 786.077 640.808 C 785.811 639.891 785.56 638.97 785.322 638.044 C 782.121 625.776 779.598 605.215 778.388 592.267 C 770.343 506.188 783.462 433.032 827.011 358.703 z"/>
<path transform="translate(0,0)" fill="rgb(249,231,176)" d="M 1221.92 245.496 C 1238.08 243.085 1254.41 245.256 1267.86 255.249 C 1268.28 255.554 1268.68 255.871 1269.08 256.201 C 1273.94 260.354 1281.64 265.634 1280.31 272.581 C 1269.75 284.598 1233.37 283.045 1222.41 271.766 C 1216.76 265.948 1217.08 262.244 1217.04 254.684 C 1219.17 251.416 1220.23 249.042 1221.92 245.496 z"/>
<path transform="translate(0,0)" fill="rgb(241,94,83)" d="M 1221.92 245.496 C 1238.08 243.085 1254.41 245.256 1267.86 255.249 C 1268.28 255.554 1268.68 255.871 1269.08 256.201 C 1244.29 264.134 1240.83 260.233 1218.76 255.074 L 1217.04 254.684 C 1219.17 251.416 1220.23 249.042 1221.92 245.496 z"/>
<path transform="translate(0,0)" fill="rgb(249,231,176)" d="M 780.025 255.991 C 790.554 247.555 811.296 240.774 824.244 245.792 C 828.535 247.455 829.098 250.097 830.84 254.048 C 831.194 261.017 831.911 264.966 827.024 270.765 C 816.201 283.608 779.929 284.16 768.31 273.002 C 765.618 265.695 774.856 260.083 780.025 255.991 z"/>
<path transform="translate(0,0)" fill="rgb(241,94,83)" d="M 780.025 255.991 C 790.554 247.555 811.296 240.774 824.244 245.792 C 828.535 247.455 829.098 250.097 830.84 254.048 C 811.907 261.352 799.516 263.495 780.025 255.991 z"/>
<path transform="translate(0,0)" fill="rgb(32,41,43)" d="M 1215.81 1597.93 C 1218.16 1600.2 1218 1608.35 1218.2 1611.98 C 1198.65 1626.93 1181.03 1629.8 1157.33 1623.53 L 1155.66 1622.71 C 1153.72 1619.48 1154.05 1614.42 1153.89 1610.46 C 1179.95 1616.28 1193.39 1610.03 1215.81 1597.93 z"/>
<path transform="translate(0,0)" fill="rgb(32,41,43)" d="M 831.201 1597.45 C 857.235 1610.32 864.429 1616.11 893.994 1610.52 C 894 1614.75 893.801 1618.88 893.628 1623.1 C 891.696 1623.6 889.758 1624.09 887.815 1624.55 C 863.478 1630.27 850.74 1624.91 830.528 1612.32 L 831.201 1597.45 z"/>
<path transform="translate(0,0)" fill="rgb(203,34,32)" d="M 849.425 382.06 C 849.358 392.287 834.501 434.597 832.862 449.268 C 832.254 454.701 827.966 483.5 826.507 486.375 C 824.666 463.058 835.485 393.799 841.159 370.727 C 842.332 375.133 842.436 377.268 845.412 380.479 L 849.425 382.06 z"/>
<path transform="translate(0,0)" fill="rgb(244,205,76)" d="M 1017.12 1811.51 C 1022.9 1811.37 1029.05 1811.47 1034.86 1811.48 C 1033.29 1821.55 1035.11 1826.11 1034.29 1834.44 L 1032.25 1834.99 L 1012.85 1835.15 C 1013.94 1829.08 1013.42 1814.03 1014.56 1811.84 L 1017.12 1811.51 z"/>
</svg>
